<svg width="48" height="48" viewBox="0 0 48 48" fill="none" xmlns="http://www.w3.org/2000/svg">
<circle cx="24" cy="24" r="24" fill="#F3F4F7"/>
<path fill-rule="evenodd" clip-rule="evenodd" d="M15.6433 14.6433C16.0552 14.2314 16.6139 14 17.1964 14H30.375C30.9575 14 31.5162 14.2314 31.9281 14.6433C32.34 15.0552 32.5714 15.6139 32.5714 16.1964V30.1071C32.5714 30.6896 32.34 31.2483 31.9281 31.6602C31.5162 32.0721 30.9575 32.3035 30.375 32.3035H29.6428V33.7678C29.6428 34.1722 29.315 34.5 28.9107 34.5C28.5063 34.5 28.1786 34.1722 28.1786 33.7678V32.3035H19.3929V33.7678C19.3929 34.1722 19.0651 34.5 18.6607 34.5C18.2564 34.5 17.9286 34.1722 17.9286 33.7678V32.3035H17.1964C16.6139 32.3035 16.0552 32.0721 15.6433 31.6602C15.2314 31.2483 15 30.6896 15 30.1071V16.1964C15 15.6139 15.2314 15.0552 15.6433 14.6433ZM16.4643 24.9821V30.1071C16.4643 30.3013 16.5414 30.4875 16.6787 30.6248C16.816 30.7621 17.0022 30.8393 17.1964 30.8393H30.375C30.5692 30.8393 30.7554 30.7621 30.8927 30.6248C31.03 30.4875 31.1071 30.3013 31.1071 30.1071V24.9821H16.4643ZM31.1071 23.5178H16.4643V16.1964C16.4643 16.0022 16.5414 15.816 16.6787 15.6787C16.816 15.5414 17.0022 15.4643 17.1964 15.4643H30.375C30.5692 15.4643 30.7554 15.5414 30.8927 15.6787C31.03 15.816 31.1071 16.0022 31.1071 16.1964V23.5178Z" fill="#97A1AF"/>
<path fill-rule="evenodd" clip-rule="evenodd" d="M19.3931 28.2768C19.4902 28.2768 19.5833 28.2382 19.652 28.1696C19.7206 28.1009 19.7592 28.0078 19.7592 27.9107C19.7592 27.8136 19.7206 27.7205 19.652 27.6519C19.5833 27.5832 19.4902 27.5446 19.3931 27.5446C19.296 27.5446 19.2029 27.5832 19.1343 27.6519C19.0656 27.7205 19.0271 27.8136 19.0271 27.9107C19.0271 28.0078 19.0656 28.1009 19.1343 28.1696C19.2029 28.2382 19.296 28.2768 19.3931 28.2768ZM18.6166 27.1342C18.8225 26.9282 19.1019 26.8125 19.3931 26.8125C19.6844 26.8125 19.9637 26.9282 20.1697 27.1342C20.3756 27.3401 20.4913 27.6195 20.4913 27.9107C20.4913 28.202 20.3756 28.4813 20.1697 28.6873C19.9637 28.8932 19.6844 29.0089 19.3931 29.0089C19.1019 29.0089 18.8225 28.8932 18.6166 28.6873C18.4106 28.4813 18.2949 28.202 18.2949 27.9107C18.2949 27.6194 18.4106 27.3401 18.6166 27.1342ZM28.1788 28.2768C28.2759 28.2768 28.369 28.2382 28.4377 28.1696C28.5063 28.1009 28.5449 28.0078 28.5449 27.9107C28.5449 27.8136 28.5063 27.7205 28.4377 27.6519C28.369 27.5832 28.2759 27.5446 28.1788 27.5446C28.0817 27.5446 27.9886 27.5832 27.92 27.6519C27.8513 27.7205 27.8128 27.8136 27.8128 27.9107C27.8128 28.0078 27.8513 28.1009 27.92 28.1696C27.9886 28.2382 28.0817 28.2768 28.1788 28.2768ZM27.4023 27.1342C27.6082 26.9282 27.8876 26.8125 28.1788 26.8125C28.4701 26.8125 28.7494 26.9282 28.9554 27.1342C29.1613 27.3401 29.277 27.6195 29.277 27.9107C29.277 28.202 29.1613 28.4813 28.9554 28.6873C28.7494 28.8932 28.4701 29.0089 28.1788 29.0089C27.8876 29.0089 27.6082 28.8932 27.4023 28.6873C27.1963 28.4813 27.0806 28.202 27.0806 27.9107C27.0806 27.6195 27.1963 27.3401 27.4023 27.1342Z" fill="#97A1AF"/>
</svg>
