<svg width="48" height="48" viewBox="0 0 48 48" fill="none" xmlns="http://www.w3.org/2000/svg">
<circle cx="24" cy="24" r="24" fill="#F3F4F7"/>
<path d="M21.0931 23.4922L14.9447 18.6909C14.6024 18.4231 14.3783 18.0318 14.3217 17.6032C14.2651 17.1746 14.3807 16.7436 14.643 16.4049L14.7069 16.3272L14.87 16.16C15.1569 15.8733 15.5223 15.6777 15.9216 15.5972C16.321 15.5166 16.7369 15.5546 17.1186 15.7064L25.321 18.9688L27.9371 16.173C28.4041 15.6725 29.0457 15.3699 29.7333 15.3259C30.4209 15.2819 31.1036 15.4997 31.6447 15.9356L31.7993 16.0705L31.8642 16.1354C32.9394 17.2106 32.9525 18.9406 31.8837 20.0094L29.0317 22.6776L32.2941 30.882C32.446 31.2636 32.484 31.6796 32.4034 32.0789C32.3229 32.4783 32.1273 32.8437 31.8406 33.1305L31.7462 33.2249C31.5842 33.3869 31.3891 33.5121 31.1738 33.5921C30.9585 33.6721 30.7279 33.7052 30.4974 33.6891C30.2669 33.673 30.0417 33.6082 29.8368 33.4988C29.6318 33.3895 29.4518 33.2381 29.3087 33.0548L24.5064 26.9055L22.3293 28.9408L23.0605 31.556C23.1516 31.8811 23.1553 32.2232 23.0715 32.5476C22.9877 32.8719 22.8192 33.1671 22.5831 33.4031C22.3224 33.6638 21.9671 33.8088 21.5955 33.8059C21.2238 33.8031 20.8663 33.6528 20.6015 33.388L19.138 31.9245L18.9667 32.0698C18.5555 32.3846 18.0416 32.5374 17.5207 32.4997C16.9998 32.462 16.5076 32.2363 16.1358 31.8647C15.764 31.4931 15.5379 31.001 15.4999 30.4802C15.4618 29.9593 15.6142 29.4453 15.9288 29.0339L16.0751 28.8616L14.6116 27.398C14.3468 27.1333 14.1965 26.7758 14.1936 26.4041C14.1908 26.0325 14.3357 25.6772 14.5965 25.4164C15.0774 24.9356 15.7824 24.7537 16.4436 24.9391L19.0578 25.6693L21.0931 23.4922ZM15.8674 17.1573L15.7543 17.2724C15.718 17.3197 15.7021 17.3798 15.7101 17.4394C15.7182 17.4991 15.7496 17.5535 15.7973 17.5907L23.1626 23.3434L19.5156 27.248L16.0853 26.2877C15.9989 26.2637 15.9081 26.2628 15.822 26.2851C15.7359 26.3074 15.6575 26.3521 15.5949 26.4148L18.0228 28.8427L17.0892 29.8442C16.9499 29.9834 16.8725 30.1732 16.874 30.3716C16.8755 30.5701 16.9558 30.761 17.0972 30.9024C17.2386 31.0438 17.4295 31.124 17.628 31.1255C17.8264 31.1271 18.0161 31.0497 18.1554 30.9104L19.1549 29.9748L21.5848 32.4047L21.6516 32.322C21.6898 32.2626 21.7149 32.1955 21.7253 32.1252C21.7357 32.055 21.7311 31.9831 21.7119 31.9143L20.7506 28.483L24.6551 24.8359L30.4259 32.2232C30.5157 32.313 30.6594 32.3151 30.7479 32.2266L30.8423 32.1322C30.9378 32.0365 31.003 31.9146 31.0298 31.7815C31.0566 31.6483 31.0439 31.5096 30.9931 31.3824L27.3782 22.2906L30.8952 19.0032C31.0182 18.8805 31.1153 18.7344 31.1812 18.5732C31.247 18.412 31.2802 18.239 31.2789 18.0639C31.2776 17.8889 31.2417 17.7153 31.1734 17.5531C31.1051 17.3909 31.0057 17.2433 30.8809 17.1187L30.8489 17.0868C30.7202 16.9662 30.5694 16.8718 30.405 16.809C30.2406 16.7463 30.066 16.7164 29.8911 16.721C29.7162 16.7257 29.5444 16.7648 29.3857 16.8361C29.2269 16.9075 29.0843 17.0097 28.9659 17.1369L25.706 20.6223L16.6182 17.0055C16.491 16.9547 16.3523 16.942 16.2191 16.9688C16.0859 16.9956 15.964 17.0608 15.8684 17.1563" fill="#97A1AF"/>
</svg>
